# xmcd CD database file
#
# Track frame offsets:
#	150
#	12705
#	29512
#	50900
#	64537
#	76964
#	99192
#	111556
#	126336
#	143025
#	162720
#	192395
#	204008
#	221800
#	243258
#	253285
#	266558
#
# Disc length: 3996 seconds
#
# Revision: 0
# Processed by: cddbd v1.5.1PL0 Copyright (c) Steve Scherf et al.
# Submitted via: CDex 1.51
#
DISCID=050f9a11
DTITLE=Various Artist - Pollute Your Ears 5 - Americana
DYEAR=2005
DGENRE=Country
TTITLE0=It's a Wonderful Lie - Paul Westerberg
TTITLE1=Make Me a Pallet on Your Floor - Mississippi John Hurt
TTITLE2=Graveyard Shift - Uncle Tupelo
TTITLE3=Game of Broken Hearts - Tarnation
TTITLE4=Ghost on the Highway - The Gun Club
TTITLE5=Until You Came Along - Golden Smog
TTITLE6=Ain't No Hangman - True West
TTITLE7=State Trooper - Bruce Springsteen
TTITLE8=Bridges and Balloons - Joanna Newsom
TTITLE9=Threads - Vic Chesnutt
TTITLE10=Colors and the Kids - Cat Power
TTITLE11=In Spite of Me - Morphine
TTITLE12=Strange Condition - Pete Yorn
TTITLE13=Here Comes a Regular - The Replacements
TTITLE14=Sack Full of Silver - Thin White Rope
TTITLE15=Barstool Boys - Marah
TTITLE16=Forgiveness Song - The Replacements
EXTD=YEAR: 2005
EXTT0=
EXTT1=
EXTT2=
EXTT3=
EXTT4=
EXTT5=
EXTT6=
EXTT7=
EXTT8=
EXTT9=
EXTT10=
EXTT11=
EXTT12=
EXTT13=
EXTT14=
EXTT15=
EXTT16=
PLAYORDER=
